<?xml version="1.0" standalone="no"?>
<!DOCTYPE svg PUBLIC "-//W3C//DTD SVG 20010904//EN"
 "http://www.w3.org/TR/2001/REC-SVG-20010904/DTD/svg10.dtd">
<svg version="1.0" xmlns="http://www.w3.org/2000/svg"
 width="1140.000000pt" height="860.000000pt" viewBox="0 0 1140.000000 860.000000"
 preserveAspectRatio="xMidYMid meet">
<metadata>
Created by potrace 1.16, written by Peter Selinger 2001-2019
</metadata>
<g transform="translate(0.000000,860.000000) scale(0.100000,-0.100000)"
fill="#000000" stroke="none">
<path d="M4465 8352 c-167 -92 -325 -250 -438 -437 -83 -137 -178 -422 -216
-641 -44 -261 -62 -536 -37 -562 10 -9 25 18 19 33 -4 13 22 45 37 45 20 0 28
-60 18 -141 -9 -79 -6 -186 12 -419 6 -81 13 -109 48 -186 62 -138 75 -199 76
-352 1 -120 3 -135 20 -148 40 -29 101 -9 121 40 11 26 12 46 4 87 -24 132
-24 134 6 157 33 27 73 28 91 5 7 -10 14 -39 14 -64 0 -31 6 -51 18 -62 10
-10 21 -17 24 -17 2 0 4 30 4 68 -1 87 16 89 64 5 19 -34 67 -102 105 -150
108 -135 108 -136 109 -293 0 -103 -4 -149 -18 -195 -10 -33 -21 -64 -26 -70
-21 -27 -61 -171 -56 -199 25 -129 70 -297 76 -285 23 41 42 220 39 364 -3
146 -3 153 29 250 83 257 124 329 207 361 35 13 61 15 113 11 69 -7 95 -13
360 -87 84 -24 155 -40 158 -37 4 3 -15 45 -41 92 -26 48 -44 89 -41 92 3 3
28 1 56 -4 27 -6 50 -7 50 -3 0 46 -101 294 -193 473 -67 133 -71 138 -96 132
-74 -19 -107 7 -135 104 -19 68 -18 70 89 105 94 30 103 31 126 10 25 -22 42
-8 35 29 -3 17 -1 36 5 44 18 21 9 23 -71 12 -71 -10 -75 -10 -92 11 -23 28
-23 37 2 83 24 44 24 47 5 47 -8 0 -22 -11 -31 -25 -22 -34 -36 -32 -32 5 3
32 1 33 -58 24 -45 -6 -80 6 -102 38 -7 10 -18 18 -24 18 -5 0 -22 9 -38 20
-15 10 -48 25 -74 32 -41 11 -51 10 -75 -4 l-29 -16 -28 45 c-15 25 -36 62
-45 84 l-18 39 29 0 c20 0 31 -6 35 -20 7 -22 25 -27 25 -7 0 7 -7 23 -16 36
-14 19 -23 22 -53 18 -35 -5 -37 -3 -76 56 -42 63 -65 81 -65 50 0 -10 -5 -25
-10 -33 -7 -12 -13 -11 -35 10 -28 27 -50 89 -91 265 -25 109 -28 137 -27 305
0 180 1 189 36 323 38 141 92 274 159 385 21 34 38 65 38 67 0 12 -28 3 -75
-23z"/>
<path d="M6895 8333 c14 -133 14 -154 0 -195 -20 -57 -19 -81 5 -128 26 -50
26 -119 0 -220 -11 -43 -17 -85 -14 -94 3 -9 20 -20 37 -25 18 -5 40 -12 50
-16 13 -5 17 -2 17 13 0 15 5 18 25 14 15 -2 25 0 25 7 0 21 49 12 62 -11 18
-33 17 -288 -1 -353 -88 -316 -96 -335 -131 -335 -15 0 -20 7 -20 24 0 14 -4
27 -8 30 -4 2 -46 -56 -93 -130 -117 -187 -187 -283 -285 -385 -97 -103 -99
-106 -175 -306 -57 -148 -91 -216 -128 -251 -10 -9 -48 -46 -84 -81 -40 -37
-67 -57 -67 -48 0 9 12 53 26 99 15 46 37 121 50 168 43 157 10 117 -120 -145
-56 -113 -109 -237 -131 -305 -36 -113 -37 -118 -46 -355 -18 -470 -19 -479
-85 -650 -70 -181 -72 -215 -32 -465 39 -236 55 -565 35 -681 -16 -92 -13
-139 9 -139 28 0 37 44 38 195 2 138 5 161 38 285 48 179 62 291 62 490 0 173
-14 310 -43 411 -15 54 -15 74 -4 207 37 434 52 485 122 436 17 -12 21 -22 17
-40 -4 -13 -4 -24 -1 -24 3 0 32 25 65 55 83 76 113 72 128 -16 10 -58 35 -60
42 -4 5 39 6 40 20 18 20 -31 28 -29 69 13 36 37 36 37 126 38 75 1 99 5 140
26 39 19 51 31 53 52 3 25 4 26 61 21 32 -3 65 -2 73 3 9 5 59 57 112 116 93
104 136 138 171 138 10 0 30 10 47 21 39 28 49 17 57 -63 8 -70 22 -102 51
-118 23 -12 24 -10 8 25 -9 20 -8 31 2 50 7 14 16 25 20 25 4 0 12 -30 18 -67
6 -36 15 -70 19 -74 12 -12 80 46 100 84 9 18 19 71 23 122 6 76 16 112 63
232 76 193 88 262 85 503 l-2 195 28 53 c28 52 29 56 23 160 -6 111 -55 418
-80 513 -89 326 -144 443 -293 619 -80 95 -133 147 -214 207 -49 35 -150 93
-164 93 -3 0 -4 -17 -1 -37z"/>
<path d="M4288 5218 c-43 -34 -58 -80 -58 -177 0 -155 40 -331 76 -331 12 0
14 45 14 260 0 143 -4 260 -8 260 -5 0 -15 -6 -24 -12z"/>
<path d="M4407 5128 c-28 -67 -41 -146 -41 -248 0 -131 37 -332 57 -310 3 3
10 89 16 191 11 183 6 385 -10 395 -5 3 -15 -10 -22 -28z"/>
<path d="M6829 5108 c-10 -17 -12 -78 -9 -238 6 -282 4 -334 -12 -367 -7 -15
-22 -29 -32 -31 -18 -4 -18 8 -15 282 4 257 3 286 -12 286 -9 0 -24 -9 -35
-21 -18 -20 -19 -47 -26 -438 -7 -456 -17 -558 -49 -488 -7 15 -16 24 -20 21
-5 -3 -9 -78 -10 -167 l0 -162 -26 58 c-14 31 -32 57 -39 57 -18 0 -19 2 16
-125 23 -86 30 -131 30 -205 0 -119 -9 -137 -41 -81 -13 22 -27 41 -31 41 -5
0 -8 -62 -9 -137 -1 -130 -1 -136 -15 -104 -8 18 -18 30 -22 27 -4 -4 -9 -69
-13 -144 -3 -76 -11 -147 -17 -157 -10 -19 -11 -18 -21 10 -23 62 -44 105 -53
105 -4 0 -8 -75 -9 -167 l0 -168 -17 44 c-20 53 -39 63 -48 26 -12 -48 2 -453
16 -470 22 -27 47 -16 88 38 52 66 81 132 89 197 4 36 14 58 34 80 16 16 29
37 29 46 0 9 18 62 41 117 41 102 41 102 34 198 l-6 96 31 32 32 31 -7 127
c-3 71 -8 154 -11 186 -3 36 0 66 8 80 7 13 15 85 19 177 l7 155 71 225 c76
239 97 331 106 462 4 46 13 112 22 148 18 77 13 186 -14 274 -20 66 -36 79
-54 44z"/>
<path d="M6571 4994 c-53 -68 -76 -287 -61 -574 5 -96 10 -183 10 -192 0 -45
20 -10 39 70 29 122 49 257 57 392 7 125 -3 330 -16 330 -5 0 -18 -12 -29 -26z"/>
<path d="M4653 4977 c-37 -80 -50 -369 -25 -527 14 -85 40 -170 52 -170 11 0
24 435 16 565 -10 155 -19 184 -43 132z"/>
<path d="M4778 4953 c-19 -42 -16 -408 5 -558 17 -123 41 -220 56 -230 5 -3
12 30 15 72 14 168 17 185 31 173 24 -20 27 8 5 57 -19 42 -20 59 -15 138 8
108 -8 238 -38 314 -26 64 -42 73 -59 34z"/>
<path d="M5017 4929 c-32 -48 -55 -115 -67 -191 -17 -106 -7 -346 19 -463 26
-118 65 -219 85 -223 14 -3 16 17 16 182 0 102 4 186 8 186 9 0 56 -57 84
-102 17 -26 87 -276 134 -477 33 -141 63 -239 76 -247 8 -5 9 20 5 82 -4 49
-10 205 -13 347 -7 249 -6 258 13 280 33 37 36 47 17 62 -18 12 -17 16 5 85
18 54 22 84 18 124 -11 110 -108 286 -157 286 -17 0 -60 -81 -75 -142 -4 -16
-10 -28 -14 -28 -3 0 -23 44 -44 98 -20 54 -50 113 -66 132 l-28 34 -16 -25z"/>
<path d="M6338 4889 c-34 -45 -43 -64 -74 -151 -37 -101 -36 -161 7 -263 l33
-80 4 -197 c2 -109 8 -198 12 -198 13 0 33 43 64 135 39 121 55 215 62 370 8
169 -5 256 -50 351 l-33 67 -25 -34z"/>
<path d="M5492 4793 c-11 -43 -26 -112 -34 -153 -17 -96 -17 -447 0 -555 17
-105 84 -375 93 -375 10 0 17 58 24 209 8 150 26 277 60 410 34 135 32 188 -9
313 -19 57 -37 126 -41 155 -6 46 -10 53 -37 62 -17 6 -32 11 -33 11 -2 0 -12
-35 -23 -77z"/>
<path d="M6108 4783 c-8 -10 -32 -58 -53 -108 -21 -49 -46 -106 -57 -125 -23
-45 -23 -86 2 -160 33 -97 39 -219 24 -495 -7 -137 -15 -271 -17 -297 -3 -36
-1 -48 9 -48 8 0 14 6 14 14 0 15 50 183 110 371 50 156 60 208 66 335 7 134
-18 494 -36 515 -17 20 -43 19 -62 -2z"/>
<path d="M4635 3993 c-31 -156 -53 -234 -71 -254 -15 -17 -16 -25 -6 -52 6
-18 16 -82 21 -142 9 -98 12 -112 34 -131 22 -19 24 -30 29 -132 5 -96 9 -117
32 -156 20 -35 26 -58 26 -105 0 -48 4 -65 20 -81 17 -17 20 -33 20 -100 0
-57 5 -90 17 -113 15 -27 17 -62 18 -222 0 -162 2 -190 15 -190 13 0 15 30 15
205 1 159 5 221 18 275 20 81 37 455 21 455 -6 0 -15 -5 -22 -12 -15 -15 -15
-20 4 124 18 139 11 160 -33 107 l-28 -33 -5 160 c-3 87 -9 159 -14 159 -5 0
-19 -27 -31 -59 -12 -32 -24 -55 -27 -50 -3 5 -5 101 -6 214 0 113 -1 208 -1
213 -1 4 -7 7 -14 7 -9 0 -20 -30 -32 -87z"/>
<path d="M5150 3193 c0 -10 -8 -90 -17 -178 -9 -93 -17 -254 -17 -385 -1 -206
1 -234 24 -330 17 -76 31 -112 48 -129 24 -24 25 -24 39 -5 24 33 27 66 14
159 -25 191 -33 280 -49 574 -12 222 -20 305 -29 309 -7 2 -13 -4 -13 -15z"/>
<path d="M4961 3098 c-31 -165 -32 -168 -51 -168 -15 0 -19 -11 -24 -67 -4
-38 -9 -85 -12 -105 -5 -30 -3 -38 10 -38 14 0 16 -15 16 -100 0 -55 4 -100 9
-100 5 0 23 17 40 38 l30 37 1 -52 c0 -76 17 -144 44 -178 l24 -30 6 105 c15
272 17 380 7 380 -6 0 -18 -15 -28 -32 l-18 -33 -8 160 c-9 187 -15 245 -26
245 -5 0 -14 -28 -20 -62z"/>
<path d="M5557 3153 c-15 -26 -28 -134 -52 -438 -8 -104 -15 -275 -18 -420 -2
-137 -1 -141 26 -187 15 -27 41 -55 57 -63 36 -18 35 -18 54 1 12 12 16 37 16
101 0 69 4 89 20 110 16 21 18 34 13 90 -6 64 -6 65 18 61 34 -4 59 -60 59
-129 0 -62 26 -212 41 -241 17 -32 47 -21 71 25 21 39 22 55 22 227 1 169 -9
275 -40 433 -10 47 -31 31 -49 -38 -10 -36 -22 -65 -27 -65 -24 0 -71 35 -103
77 -54 71 -67 126 -71 303 -3 122 -7 156 -18 158 -8 2 -16 -1 -19 -5z"/>
<path d="M6026 2978 c-4 -23 -11 -86 -16 -138 -5 -52 -19 -178 -30 -280 -24
-224 -25 -324 -4 -396 14 -51 36 -84 53 -84 21 0 43 44 52 101 17 117 23 427
10 537 -13 109 -46 290 -54 299 -3 3 -8 -15 -11 -39z"/>
<path d="M5316 2743 c-10 -31 -46 -254 -46 -283 0 -32 66 -294 82 -325 13 -24
49 -65 58 -65 13 0 30 52 30 93 0 78 -96 597 -110 597 -5 0 -11 -8 -14 -17z"/>
<path d="M6210 2718 c0 -6 -44 -218 -64 -308 -27 -119 -30 -194 -11 -224 10
-14 21 -26 26 -26 20 0 40 52 59 155 12 61 28 136 37 167 12 44 13 61 4 72 -6
7 -14 43 -18 80 -3 36 -12 71 -19 77 -8 6 -14 9 -14 7z"/>
<path d="M4635 2000 c-33 -34 -97 -60 -103 -41 -7 20 -21 12 -47 -28 -15 -24
-53 -58 -97 -87 -40 -25 -90 -60 -111 -76 -21 -17 -59 -38 -85 -48 -42 -16
-47 -21 -43 -46 1 -16 12 -45 23 -64 l21 -36 -21 -48 c-12 -26 -26 -45 -32
-41 -6 4 -10 -5 -10 -20 0 -24 -1 -25 -16 -10 -13 13 -19 13 -31 3 -28 -23
-34 -57 -17 -91 14 -26 15 -39 5 -80 -6 -27 -11 -64 -11 -82 0 -43 -19 -135
-29 -135 -4 0 -15 13 -24 30 -10 16 -38 44 -63 61 -42 29 -44 32 -30 48 26 29
19 54 -29 99 -55 51 -60 83 -14 80 43 -4 60 23 35 51 -11 12 -27 21 -38 21
-13 0 -18 8 -18 30 0 31 -9 37 -27 19 -7 -7 -17 -8 -29 -1 -26 13 -239 3 -289
-14 -22 -7 -48 -14 -57 -14 -10 0 -18 -5 -18 -12 0 -19 20 -80 45 -133 54
-117 59 -133 44 -151 -11 -14 -10 -18 8 -32 11 -10 23 -25 26 -35 5 -13 13
-16 30 -12 19 5 28 -1 50 -32 15 -22 27 -50 27 -64 0 -40 19 -94 40 -117 11
-11 20 -28 20 -37 0 -9 12 -43 26 -77 21 -50 24 -66 15 -80 -13 -21 -2 -49 27
-70 32 -23 48 -143 34 -257 -7 -53 -12 -110 -12 -126 0 -22 -11 -43 -41 -74
-28 -30 -37 -47 -30 -54 7 -7 23 0 52 23 23 18 63 39 90 47 51 15 91 52 131
123 13 22 26 40 31 40 4 0 7 -17 7 -37 0 -57 28 -215 40 -227 13 -13 13 -16
15 194 2 144 -1 183 -15 226 l-18 51 39 33 c41 35 49 57 24 66 -23 9 -19 55 6
61 19 5 20 10 14 62 l-7 56 21 -19 c28 -25 38 -13 23 27 -14 40 -15 74 -3 82
6 3 17 40 26 83 9 42 23 102 31 134 8 31 14 60 13 65 -4 23 3 33 25 33 26 0
56 23 56 43 0 7 -7 22 -15 35 -14 19 -14 25 3 58 23 46 33 34 35 -45 2 -44 -2
-64 -15 -78 -25 -28 -23 -36 22 -87 46 -54 59 -104 36 -138 -21 -30 -20 -99 2
-137 14 -26 15 -34 4 -51 -7 -12 -10 -26 -6 -32 11 -18 13 -261 3 -280 -7 -13
-20 -17 -42 -15 -27 2 -31 -1 -29 -18 9 -50 26 -55 173 -55 l138 0 28 -34 c23
-27 32 -32 50 -25 12 4 25 18 29 31 l7 23 8 -23 c10 -28 29 -29 36 -1 5 16 12
20 34 17 22 -4 29 0 31 16 3 18 9 20 38 17 90 -10 91 -10 126 49 39 65 41 74
14 65 -18 -6 -20 -2 -20 38 0 43 -1 45 -38 54 -28 7 -43 6 -57 -3 -26 -16
-267 -24 -272 -8 -2 6 7 15 19 21 l22 10 -27 18 c-33 22 -34 35 -2 65 14 13
25 32 25 42 0 11 7 32 15 48 12 23 22 30 45 30 17 0 56 7 88 15 31 8 69 17 84
20 26 5 66 60 82 113 6 19 2 25 -29 38 -31 12 -46 13 -89 3 -37 -8 -67 -8
-102 -1 -27 5 -78 7 -113 5 -47 -4 -65 -2 -72 8 -12 19 -11 152 1 183 9 24 14
26 79 26 51 0 72 -4 82 -16 10 -12 25 -15 58 -11 31 3 72 -3 130 -19 46 -14
87 -21 92 -17 4 4 10 42 13 83 8 94 1 100 -99 89 -82 -9 -151 -2 -182 17 -28
18 -33 18 -33 -1 0 -18 -27 -20 -33 -2 -3 9 -8 8 -22 -3 -21 -17 -97 -22 -107
-6 -5 7 -19 4 -44 -7 -31 -15 -42 -16 -67 -6 -25 11 -31 10 -39 -4 -19 -34
-34 -16 -48 58 -7 35 -3 50 31 121 22 45 49 90 61 100 11 11 31 35 43 54 12
19 35 48 50 64 15 16 29 43 32 60 2 17 19 47 38 66 41 44 57 74 49 94 -9 24
-27 19 -59 -14z m-476 -596 c3 -16 1 -17 -13 -5 -19 16 -21 34 -3 29 6 -3 14
-13 16 -24z m-175 -339 l28 -36 -21 -49 c-12 -27 -21 -58 -21 -70 0 -12 -5
-30 -11 -42 -11 -20 -11 -20 -35 3 -29 27 -31 39 -6 39 13 0 23 13 32 41 14
41 14 42 -16 68 -17 14 -46 40 -65 56 l-34 30 25 3 c14 2 29 8 34 12 14 14 59
-14 90 -55z m704 -220 c4 -16 -12 -34 -30 -35 -10 0 -10 44 -1 54 11 11 28 1
31 -19z"/>
<path d="M5624 1689 c-4 -7 -9 -119 -10 -248 -2 -180 1 -243 11 -268 8 -18 17
-54 21 -80 3 -26 17 -68 30 -93 29 -54 32 -100 7 -100 -42 0 -61 14 -90 63
-25 42 -30 60 -26 95 5 41 5 42 -25 42 -27 0 -35 8 -74 76 -24 41 -64 108 -90
149 -42 66 -52 75 -90 85 -24 7 -53 23 -65 38 l-22 27 -1 -32 c0 -42 -11 -41
-57 1 -43 38 -75 56 -97 56 -26 0 -18 -13 24 -42 22 -15 40 -34 40 -41 0 -7 9
-20 19 -29 27 -23 28 -72 17 -543 -4 -153 -10 -232 -20 -260 -8 -22 -17 -53
-21 -70 -4 -16 -20 -50 -36 -74 -16 -24 -27 -46 -25 -48 9 -10 134 30 171 54
79 51 85 60 85 131 0 36 3 62 7 59 13 -13 33 16 33 49 0 27 -6 36 -31 50 -31
16 -32 16 -25 76 3 34 6 71 6 84 0 22 1 22 29 -7 18 -18 40 -29 56 -29 22 0
26 -3 20 -17 -14 -34 -10 -47 15 -53 14 -3 30 -18 37 -33 7 -15 19 -39 26 -54
15 -32 47 -44 47 -18 0 14 3 15 15 5 8 -7 15 -20 15 -30 0 -10 -7 -34 -15 -53
-20 -47 -19 -71 0 -63 8 3 27 1 42 -5 40 -15 56 6 23 31 -20 15 -21 20 -8 20
26 0 73 -65 73 -103 0 -27 4 -32 25 -33 44 -1 71 -15 90 -46 11 -18 20 -25 25
-19 9 16 25 3 18 -14 -6 -18 15 -47 28 -39 5 3 6 16 3 29 -3 13 2 79 11 147
14 102 16 163 10 357 -6 215 -5 233 10 227 9 -3 21 -6 26 -6 5 0 0 -9 -11 -20
-24 -24 -24 -35 -4 -112 8 -33 13 -72 9 -87 -3 -16 2 -39 14 -61 11 -19 29
-54 40 -78 11 -24 31 -57 44 -75 14 -18 39 -61 58 -95 18 -35 47 -75 65 -89
22 -16 31 -30 27 -40 -6 -14 2 -15 55 -10 55 6 64 4 81 -15 11 -11 23 -41 27
-65 3 -24 10 -46 15 -48 16 -11 31 37 24 81 -7 51 1 55 61 26 31 -14 38 -15
42 -3 3 8 15 24 27 35 12 12 25 33 28 47 4 15 23 39 42 53 20 15 35 33 34 39
-1 7 9 37 24 68 38 83 57 155 63 239 3 41 10 97 16 124 10 44 9 51 -8 65 -25
21 -47 110 -46 185 l1 58 -35 -7 c-30 -5 -46 0 -102 34 -96 58 -140 74 -202
74 -30 0 -63 4 -73 9 -14 7 -24 5 -41 -11 -13 -12 -36 -21 -53 -21 -22 0 -38
-8 -51 -25 -11 -14 -27 -25 -35 -25 -9 0 -19 -17 -26 -46 -7 -25 -25 -63 -42
-83 -16 -21 -35 -55 -42 -77 l-12 -39 -3 36 c-2 26 -10 40 -27 49 -13 7 -27
20 -30 28 -3 9 -10 109 -15 222 -5 113 -12 214 -16 223 -3 9 -16 17 -28 17
-27 0 -116 -55 -117 -72 -1 -7 -1 -69 -1 -138 0 -104 -1 -116 -8 -70 -5 30
-13 82 -18 115 -6 33 -13 89 -17 125 -7 71 -9 78 -21 59z m751 -423 c34 -15
65 -59 65 -95 0 -15 -11 -22 -50 -31 -28 -7 -57 -10 -65 -6 -16 6 -65 97 -65
120 0 26 64 33 115 12z m-670 -81 c-3 -26 -9 -45 -12 -42 -2 3 -1 26 2 52 4
25 10 44 12 41 3 -3 2 -26 -2 -51z m536 -6 c18 -34 43 -68 56 -76 31 -20 96
-28 122 -14 20 11 23 9 40 -31 20 -45 35 -185 23 -204 -4 -6 -21 -19 -39 -28
-42 -21 -53 -44 -57 -116 -1 -33 -5 -62 -8 -65 -3 -3 -16 4 -30 14 -43 34
-148 52 -148 26 0 -7 8 -19 18 -25 16 -11 16 -11 -1 -6 -10 3 -22 6 -27 6 -11
0 -80 141 -80 164 0 11 -5 34 -12 51 -10 29 -8 38 20 87 37 65 41 98 12 105
-11 3 -20 7 -20 9 0 14 82 164 90 164 5 0 23 -27 41 -61z m-910 -142 c9 -20 6
-30 -15 -62 l-26 -38 0 30 c0 45 11 93 21 93 5 0 14 -10 20 -23z m984 -418 c5
-6 3 -9 -7 -9 -9 0 -19 4 -22 9 -3 5 -16 7 -28 3 -15 -4 -19 -2 -13 7 8 13 52
7 70 -10z"/>
<path d="M6800 1587 c0 -6 16 -34 35 -61 19 -27 32 -53 29 -57 -3 -5 -31 -9
-63 -9 -81 0 -106 -30 -87 -101 5 -16 3 -29 -3 -33 -16 -10 -13 -43 4 -50 24
-9 20 -78 -5 -94 -26 -16 -26 -48 0 -64 13 -8 18 -19 14 -34 -3 -12 -1 -25 5
-28 15 -10 14 -36 -4 -70 -19 -36 -19 -46 0 -46 17 0 19 -14 6 -38 -5 -10 -12
-45 -16 -79 -3 -33 -10 -76 -15 -94 -10 -35 1 -59 26 -59 8 0 14 -7 14 -15 0
-8 -9 -15 -20 -15 -28 0 -15 -25 21 -40 29 -12 43 -39 39 -76 -4 -36 0 -45 26
-54 14 -6 23 -14 20 -19 -3 -4 0 -16 8 -26 11 -16 14 -14 35 20 12 21 25 35
28 31 3 -3 -1 -14 -9 -23 -8 -10 -18 -30 -22 -45 -3 -15 -22 -62 -42 -104 -39
-85 -54 -144 -36 -144 15 0 28 25 82 160 l46 115 57 1 c31 0 59 3 62 6 3 3
-13 52 -36 109 -40 101 -41 106 -36 189 4 55 2 108 -7 150 -8 36 -17 98 -21
138 -6 61 -5 72 8 72 20 0 48 -83 51 -151 2 -36 11 -62 32 -92 16 -23 36 -62
43 -86 11 -39 11 -46 -3 -57 -20 -14 -21 -40 -2 -51 8 -4 15 -17 18 -28 5 -28
31 -25 38 5 l6 25 17 -32 c16 -30 16 -35 2 -57 -18 -27 -7 -41 25 -31 12 4 20
2 20 -5 0 -6 11 -16 25 -22 16 -7 25 -19 25 -34 0 -39 20 -37 36 3 12 27 15
54 11 93 -6 53 -4 57 42 125 68 100 111 181 111 209 0 31 14 40 48 31 l27 -7
-23 -12 c-20 -11 -21 -14 -7 -31 22 -30 19 -81 -6 -98 -17 -13 -19 -19 -10
-36 7 -12 18 -21 26 -21 10 0 15 -10 15 -27 0 -16 3 -52 6 -80 6 -45 4 -53
-10 -53 -12 0 -16 -9 -16 -33 1 -72 -2 -76 -38 -51 -34 24 -46 7 -22 -32 24
-42 24 -44 6 -44 -28 0 -29 -23 -2 -45 18 -14 32 -41 44 -82 18 -64 39 -84 34
-32 -2 24 2 29 20 29 12 0 41 -9 65 -21 24 -12 49 -19 57 -16 20 8 27 60 16
118 -6 29 -10 92 -10 141 l0 88 23 -14 c20 -12 29 -11 85 15 44 21 62 35 62
48 0 24 -19 31 -81 31 -37 0 -49 -4 -49 -15 0 -25 -20 -17 -31 13 -7 19 -8 42
0 77 22 109 36 234 35 320 -1 50 -2 105 -2 123 0 17 0 53 1 80 1 26 -2 54 -6
62 -5 11 6 22 40 40 33 17 48 31 48 45 0 23 -24 27 -139 25 -60 -1 -68 1 -62
15 16 44 18 68 5 76 -19 12 -39 -9 -39 -42 0 -24 -5 -29 -36 -35 -44 -8 -64
-38 -62 -91 0 -23 -5 -55 -12 -72 -10 -25 -15 -29 -27 -20 -25 22 -38 -5 -19
-42 21 -42 20 -52 -5 -75 -27 -23 -49 -74 -49 -110 0 -16 -13 -41 -35 -65 -19
-22 -35 -48 -35 -60 0 -21 -40 -99 -51 -99 -11 0 -73 169 -93 255 -4 17 -15
38 -23 47 -17 19 -19 17 33 33 22 7 9 22 -26 30 -35 8 -45 23 -60 91 -6 27
-22 63 -36 81 -13 17 -24 38 -24 45 0 22 -22 38 -52 38 -19 0 -31 6 -34 18 -3
9 -12 28 -20 42 -8 14 -22 40 -30 58 -14 32 -54 46 -54 19z m-35 -814 c-3 -19
-9 -33 -12 -30 -3 3 -2 25 2 49 5 24 10 37 12 30 3 -7 2 -29 -2 -49z"/>
</g>
</svg>
